<svg xmlns="http://www.w3.org/2000/svg" xmlns:xlink="http://www.w3.org/1999/xlink" width="500" zoomAndPan="magnify" viewBox="0 0 375 374.999991" height="500" preserveAspectRatio="xMidYMid meet" version="1.0"><defs><g/></defs><g fill="#5e17eb" fill-opacity="1"><g transform="translate(22.206172, 140.875596)"><g><path d="M 59.359375 -89.40625 L 125.34375 -89.40625 L 125.34375 -27.3125 L 104.78125 2.015625 L 69.421875 2.015625 L 69.421875 -8.484375 L 99.171875 -8.484375 L 114.5625 -30.46875 L 114.5625 -78.90625 L 59.359375 -78.90625 L 59.359375 -35.078125 L 32.921875 2.59375 L 19.984375 2.59375 L 48.578125 -38.09375 L 48.578125 -78.90625 L 18.390625 -78.90625 L 18.390625 -89.40625 L 48.578125 -89.40625 L 48.578125 -110.8125 L 59.359375 -110.8125 Z M 59.359375 -89.40625 "/></g></g></g><g fill="#5e17eb" fill-opacity="1"><g transform="translate(209.059892, 140.875596)"><g><path d="M 125.34375 -111.96875 L 125.34375 -98.890625 L 93.859375 -76.890625 L 93.859375 2.59375 L 82.640625 2.59375 L 82.640625 -69 L 29.609375 -31.765625 L 29.609375 -20.265625 L 18.390625 -20.265625 L 18.390625 -37.375 L 114.125 -104.5 L 114.125 -111.96875 Z M 125.34375 -111.96875 "/></g></g></g><g fill="#5e17eb" fill-opacity="1"><g transform="translate(22.206172, 341.875583)"><g><path d="M 99.171875 -38.234375 L 114.5625 -60.078125 L 114.5625 -79.765625 L 48.4375 -79.765625 L 48.4375 -10.640625 L 121.171875 -10.640625 L 121.171875 0 L 37.65625 0 L 37.65625 -79.765625 L 18.390625 -79.765625 L 18.390625 -90.40625 L 37.65625 -90.40625 L 37.65625 -108.09375 L 48.4375 -108.09375 L 48.4375 -90.40625 L 125.34375 -90.40625 L 125.34375 -56.921875 L 104.78125 -27.734375 L 69 -27.734375 L 69 -38.234375 Z M 99.171875 -38.234375 "/></g></g></g><g fill="#5e17eb" fill-opacity="1"><g transform="translate(209.059892, 341.875583)"><g><path d="M 125.34375 -81.5 L 75.3125 -81.5 L 81.78125 -44.984375 L 125.34375 -44.984375 L 125.34375 -34.203125 L 83.65625 -34.203125 L 90.125 2.59375 L 78.765625 2.59375 L 72.296875 -34.203125 L 18.390625 -34.203125 L 18.390625 -44.984375 L 70.4375 -44.984375 L 63.96875 -81.5 L 18.390625 -81.5 L 18.390625 -92.28125 L 62.09375 -92.28125 L 58.78125 -110.8125 L 70.140625 -110.8125 L 73.453125 -92.28125 L 125.34375 -92.28125 Z M 125.34375 -81.5 "/></g></g></g></svg>