<svg xmlns="http://www.w3.org/2000/svg" xmlns:xlink="http://www.w3.org/1999/xlink" width="500" zoomAndPan="magnify" viewBox="0 0 375 374.999991" height="500" preserveAspectRatio="xMidYMid meet" version="1.0"><defs><g/></defs><g fill="#5e17eb" fill-opacity="1"><g transform="translate(31.017816, 306.375195)"><g><path d="M 235.65625 -249.421875 L 254.125 -249.421875 L 286.671875 -202.796875 L 268.515625 -202.796875 Z M 278.84375 -267.890625 L 311.703125 -221.265625 L 293.234375 -221.265625 L 260.375 -267.890625 Z M 253.484375 -184.328125 L 90.4375 -184.328125 L 90.4375 -37.875 L 61.65625 3.125 L 33.484375 3.125 L 66.96875 -44.4375 L 66.96875 -184.328125 L 36.921875 -184.328125 L 36.921875 -207.484375 L 66.96875 -207.484375 L 66.96875 -241.28125 L 90.4375 -241.28125 L 90.4375 -207.484375 L 253.484375 -207.484375 Z M 143.953125 -117.671875 L 143.953125 -140.828125 L 270.078125 -140.828125 L 270.078125 -117.671875 Z M 152.09375 -59.140625 L 177.125 -23.46875 L 273.828125 -23.46875 L 273.828125 -0.3125 L 165.234375 -0.3125 L 123.921875 -59.140625 Z M 152.09375 -59.140625 "/></g></g></g></svg>